Coordinates
version=1
nRows=19
nColumns=36
inDegrees=yes

Units are S.I. units (second, meters, Newtons, ...)
If the header above contains a line with 'inDegrees', this indicates whether rotational values are in degrees (yes) or radians (no).

endheader
time	pelvis_tilt	pelvis_list	pelvis_rotation	pelvis_tx	pelvis_ty	pelvis_tz	hip_flexion_r	hip_adduction_r	hip_rotation_r	knee_angle_r	knee_angle_r_beta	ankle_angle_r	subtalar_angle_r	mtp_angle_r	hip_flexion_l	hip_adduction_l	hip_rotation_l	knee_angle_l	knee_angle_l_beta	ankle_angle_l	subtalar_angle_l	mtp_angle_l	lumbar_extension	lumbar_bending	lumbar_rotation	arm_flex_r	arm_add_r	arm_rot_r	elbow_flex_r	pro_sup_r	arm_flex_l	arm_add_l	arm_rot_l	elbow_flex_l	pro_sup_l
      8.01666670	    -15.03956910	      1.06544280	      8.04885317	      0.32190802	      0.68421100	     -0.07519320	     77.55440389	     -6.71986177	      3.83853530	     91.01292438	      1.58847519	     33.32725628	    -11.03749408	     -7.49999987	     76.29220654	     -8.72423455	      3.01403609	     91.07687926	      1.58959142	     22.99717543	    -15.90513962	     -7.49999987	    -39.05283974	     -2.43053621	      0.97025629	     45.88732643	    -10.44945395	      5.35845855	    114.25227787	     91.97802829	     49.35251777	    -17.53322598	     15.19210427	    110.25209009	     91.27572382
      8.03333330	    -18.00234185	      1.16398800	      7.86693807	      0.31781046	      0.67191926	     -0.07260727	     81.83741817	     -7.11358527	      4.00380992	     92.41759687	      1.61299135	     33.28395036	     -9.47811376	     -7.49999987	     80.62102472	     -8.86889118	      2.68619698	     92.54736441	      1.61525622	     22.61584048	    -15.55096280	     -7.49999987	    -38.82982964	     -2.91241808	      1.17207134	     49.51961383	    -12.12454057	      4.77855135	    117.01791475	     92.32462916	     52.78980387	    -17.31404378	     15.70281747	    112.55579055	     91.62125467
      8.05000000	    -20.66373697	      1.16461236	      7.74348713	      0.32525111	      0.66044984	     -0.07604696	     85.55618549	     -7.47375804	      4.31541299	     93.95498319	      1.63982381	     33.60354325	     -8.61813329	     -7.49999987	     84.03992429	     -8.84737682	      2.61527831	     93.96796934	      1.64005046	     23.22477846	    -15.47315468	     -7.49999987	    -38.17611643	     -3.11896434	      1.64912289	     51.41821791	    -13.78955020	      4.68583185	    120.52128042	     93.02418231	     53.95040597	    -16.92626971	     16.27869116	    114.32133654	     92.25039937
      8.06666670	    -23.04109164	      1.21640111	      7.61013424	      0.32528816	      0.65513226	     -0.07013777	     88.28767169	     -7.32339610	      4.41211781	     94.67746862	      1.65243355	     33.40520281	     -8.43795065	     -7.49999987	     86.24132383	     -9.10308745	      2.52077623	     94.13427648	      1.64295306	     23.15762378	    -15.07510509	     -7.49999987	    -37.97096751	     -3.93094355	      2.69047865	     52.42836817	    -15.14788768	      1.88692197	    124.48355543	     96.62689641	     56.33576779	    -15.10227731	     16.74057786	    115.47997388	     95.48769675
      8.08333330	    -25.08122508	      1.37959573	      7.25224664	      0.32235401	      0.64751684	     -0.07121416	     91.19894248	     -7.28599157	      4.61189013	     95.26020170	      1.66260417	     32.97002930	     -8.28802542	     -7.49999987	     88.45727186	     -8.99192556	      2.58421592	     94.67213734	      1.65234051	     23.15382655	    -15.71255055	     -7.49999987	    -37.93037713	     -4.31317512	      1.96597859	     54.44368738	    -14.73202422	      2.36452644	    125.68166812	     97.28306623	     58.51507662	    -14.40797416	     15.66645733	    116.32520633	     95.82324431
      8.10000000	    -26.89762118	      1.38908894	      7.16549606	      0.32642623	      0.63518802	     -0.06880468	     93.93218287	     -7.26320854	      4.67855576	     96.45322193	      1.68342630	     33.14494139	     -7.67530310	     -7.49999987	     90.84102112	     -9.10963916	      2.84442268	     95.52783508	      1.66727525	     22.71200913	    -16.44064646	     -7.49999987	    -37.90754168	     -4.51591723	      1.53451352	     56.30682293	    -15.12338280	      2.78214013	    127.96023486	     96.81958025	     59.85536604	    -14.19283357	     15.13253054	    117.97204645	     95.16218625
      8.11666670	    -28.64814948	      1.40888828	      7.27873015	      0.32467511	      0.62857523	     -0.07288853	     96.39254704	     -7.54291929	      4.90019302	     97.24042784	      1.69716563	     32.70902318	     -7.56383514	     -7.49999987	     93.18704262	     -8.71619576	      2.71439256	     96.20689672	      1.67912711	     22.43217123	    -17.53504726	     -7.49999987	    -37.62625120	     -4.35259764	      0.44642135	     58.39030360	    -14.88687836	      3.47602023	    128.69649738	    103.60534709	     61.19682754	    -14.47412809	     14.08057878	    119.63890253	     99.29967898
      8.13333330	    -29.98943941	      1.16692136	      7.55915743	      0.31817173	      0.62552175	     -0.07400564	     98.52058843	     -8.16323977	      4.91222235	     97.31244757	      1.69842261	     32.50469244	     -7.44462837	     -7.49999987	     94.81459584	     -8.29939946	      2.83873011	     96.18016509	      1.67866056	     22.00755728	    -17.95527916	     -7.49999987	    -37.57085989	     -4.09307235	     -0.52697201	     60.00006946	    -14.85948081	      3.86008021	    129.08561753	    103.70502835	     64.54959422	    -14.43532514	     14.87833872	    120.24493398	     99.40507605
      8.15000000	    -31.05057168	      1.06011703	      7.62490363	      0.32226665	      0.62755964	     -0.07363528	     99.63807250	     -8.50622559	      4.75247194	     97.07302184	      1.69424385	     32.34163926	     -7.17000088	     -7.49999987	     95.81770509	     -8.07240422	      2.68575991	     95.97607267	      1.67509847	     21.02469848	    -18.74643767	     -7.49999987	    -37.72158502	     -4.00059444	     -1.18621890	     60.97512602	    -14.96074071	      4.17921701	    129.38289934	    103.90352562	     67.22838775	    -14.27278806	     15.51395105	    120.90476059	     99.55296935
      8.16666670	    -31.97539107	      1.04754224	      7.50661383	      0.32223102	      0.62625221	     -0.07361914	    100.40322651	     -8.62513438	      4.60574558	     96.62710924	      1.68646120	     32.15127596	     -6.81386773	     -7.49999987	     96.43881821	     -8.23014084	      2.41629006	     95.49440447	      1.66669178	     20.63779642	    -19.14800326	     -7.49999987	    -37.60643401	     -4.09191823	     -1.59892531	     61.47274809	    -15.05484113	      4.33793880	    129.68527063	    102.32536773	     69.21743724	    -14.25048583	     16.34037375	    121.75408844	     98.27996537
      8.18333330	    -32.31454622	      1.13029921	      7.32265920	      0.33022893	      0.63002577	     -0.07653329	    100.19501294	     -8.83887787	      4.37856007	     96.31793471	      1.68106509	     32.06201762	     -6.07129095	     -7.49999987	     96.17160809	     -8.23639540	      2.06809960	     95.05825268	      1.65907949	     20.00900427	    -20.25546204	     -7.49999987	    -37.66508080	     -4.18929900	     -1.71412113	     60.91888368	    -15.09404802	      4.33757820	    129.84959166	    103.11660673	     69.67128595	    -14.18027328	     17.10221639	    122.60814557	     98.83696022
      8.20000000	    -32.29923664	      1.33470535	      7.18276957	      0.33892945	      0.63691478	     -0.07723106	     99.26908757	     -8.93651447	      4.47151139	     95.84137916	      1.67274763	     32.45534358	     -5.63356889	     -7.49999987	     95.11196092	     -8.27470890	      1.57647046	     94.52079005	      1.64969900	     20.10500786	    -20.58586245	     -7.49999987	    -37.87944934	     -4.34436418	     -1.77183617	     59.76837742	    -15.14555065	      4.51714077	    130.31883882	    103.59050173	     68.82517533	    -13.76634611	     17.18754323	    123.66535111	     99.14129854
      8.21666670	    -32.12478622	      1.67867234	      7.22067266	      0.34567335	      0.64351786	     -0.07503952	     97.88513650	     -8.83275111	      4.79216924	     95.14138673	      1.66053045	     32.85410817	     -5.95438705	     -7.49999987	     93.55986463	     -8.08927891	      1.19390517	     93.68613410	      1.63513150	     19.51483299	    -21.67920653	     -7.49999987	    -38.00777989	     -4.58041889	     -1.64069136	     58.03930640	    -15.23876169	      4.30575090	    130.73781878	    106.51781688	     67.35751771	    -13.40595887	     17.47836167	    124.14558370	    101.23485319
      8.23333330	    -31.67661646	      2.11745012	      7.34098256	      0.35709898	      0.65463522	     -0.08573982	     95.48881912	     -8.72124135	      5.66632878	     94.13170761	      1.64290823	     33.30129875	     -6.46029552	     -7.49999987	     91.11110153	     -7.34582866	      0.47271932	     92.42712713	      1.61315769	     19.49247660	    -22.54432442	     -7.49999987	    -38.06584527	     -4.32880788	     -1.53748869	     55.96826231	    -15.65915038	      4.34740430	    130.63966769	    104.39688175	     64.30437525	    -12.97836409	     17.76579727	    124.73940655	     99.54453801
      8.25000000	    -30.85757057	      2.40241188	      7.52161131	      0.37129232	      0.66186109	     -0.09021902	     92.47756045	     -8.61084130	      6.45406167	     93.40803019	      1.63027767	     33.91924217	     -7.60213941	     -7.49999987	     88.05629114	     -6.37021575	      0.21564003	     91.13805973	      1.59065922	     20.34906104	    -23.45366659	     -7.49999987	    -37.51343175	     -3.98803155	     -0.89934306	     52.69532224	    -16.62814587	      4.62071098	    129.70884378	    104.09513076	     59.65281383	    -12.83767875	     18.64337604	    124.99383083	     99.32394105
      8.26666670	    -29.93346849	      2.41667323	      7.62291913	      0.38689714	      0.67121558	     -0.08611649	     89.12226421	     -8.17751797	      6.81321036	     92.40103966	      1.61270237	     34.74472339	     -8.95596613	     -7.49999987	     85.28987197	     -5.28596082	      0.78992981	     90.42231264	      1.57816707	     19.35610223	    -25.79434875	     -7.49999987	    -36.53243732	     -3.70394328	      0.42880545	     48.19200328	    -17.41887794	      4.89968322	    127.83311577	    104.50943646	     53.87004509	    -12.92178766	     19.91242935	    125.07686784	     99.64564010
      8.28333330	    -28.94842264	      2.41492413	      7.66627154	      0.38715550	      0.68299005	     -0.08491811	     86.02579081	     -7.42819458	      7.34911118	     90.88584369	      1.58625722	     34.85726312	    -10.68634730	     -7.49999987	     82.49284031	     -3.95302244	      1.55453232	     89.02924518	      1.55385346	     18.26814659	    -27.85579895	     -7.49999987	    -35.40969814	     -3.63806410	      1.53870087	     44.13317994	    -18.38824080	      5.22352353	    124.37594172	    104.79463721	     49.76750098	    -14.12528926	     21.86647034	    124.32316848	    100.04860624
      8.30000000	    -27.95202874	      2.06334205	      8.09521251	      0.40288889	      0.69515576	     -0.08171409	     82.55968874	     -6.66252552	      7.27047110	     89.37852357	      1.55994952	     34.90238576	    -12.52691345	     -7.49999987	     79.30070262	     -2.58741081	      3.20391929	     86.94258694	      1.51743440	     16.40844351	    -30.44068917	     -7.49999987	    -34.07843611	     -3.41564373	      2.51536320	     39.80390618	    -18.88139333	      5.00075406	    119.98440170	    104.73212111	     45.26962541	    -16.66570233	     23.70842358	    122.84373848	    100.39740041
      8.31666670	    -27.21078135	      1.99839319	      8.42489927	      0.40344099	      0.70722082	     -0.08192607	     79.74318636	     -6.09982664	      7.38523242	     87.67755704	      1.53026205	     34.00662891	    -13.80644442	     -7.49999987	     76.63958760	     -1.26144582	      4.35717772	     84.76102339	      1.47935894	     15.82869425	    -31.87421847	     -7.49999987	    -32.69475828	     -3.46182089	      2.72510035	     36.19334254	    -19.67281292	      4.89754702	    114.07751765	    103.79243116	     41.51574453	    -19.26543821	     25.09474096	    121.51787668	    100.51937638
